<mxfile host="Electron" modified="2024-08-18T07:57:52.532Z" agent="Mozilla/5.0 (Windows NT 10.0; Win64; x64) AppleWebKit/537.36 (KHTML, like Gecko) draw.io/24.4.13 Chrome/124.0.6367.207 Electron/30.0.6 Safari/537.36" etag="P6EEuyC9YH1DUFY24Gnn" version="24.4.13" type="device">
  <diagram name="Page-1" id="Jl7wvfLycEZ27LiSz_6R">
    <mxGraphModel dx="2440" dy="1407" grid="1" gridSize="10" guides="1" tooltips="1" connect="1" arrows="1" fold="1" page="1" pageScale="1" pageWidth="1169" pageHeight="827" math="0" shadow="0">
      <root>
        <mxCell id="0" />
        <mxCell id="1" parent="0" />
        <mxCell id="QIEWuuHiFVR3ubCQnn6e-1" value="MAIN CONTROL&lt;div&gt;主控板&lt;/div&gt;" style="rounded=1;whiteSpace=wrap;html=1;arcSize=7;" vertex="1" parent="1">
          <mxGeometry x="100" y="160" width="320" height="360" as="geometry" />
        </mxCell>
        <mxCell id="QIEWuuHiFVR3ubCQnn6e-2" value="USB-TTL&lt;div&gt;串口通讯&lt;/div&gt;" style="rounded=1;whiteSpace=wrap;html=1;arcSize=7;" vertex="1" parent="1">
          <mxGeometry x="660" y="360" width="320" height="160" as="geometry" />
        </mxCell>
        <mxCell id="QIEWuuHiFVR3ubCQnn6e-3" value="DEBUGGER&lt;div&gt;下载/调试器&lt;/div&gt;" style="rounded=1;whiteSpace=wrap;html=1;arcSize=7;" vertex="1" parent="1">
          <mxGeometry x="660" y="160" width="320" height="160" as="geometry" />
        </mxCell>
        <mxCell id="QIEWuuHiFVR3ubCQnn6e-4" value="GND" style="text;html=1;align=center;verticalAlign=middle;whiteSpace=wrap;rounded=0;" vertex="1" parent="1">
          <mxGeometry x="360" y="330" width="60" height="30" as="geometry" />
        </mxCell>
        <mxCell id="QIEWuuHiFVR3ubCQnn6e-5" value="RX" style="text;html=1;align=center;verticalAlign=middle;whiteSpace=wrap;rounded=0;" vertex="1" parent="1">
          <mxGeometry x="660" y="440" width="60" height="30" as="geometry" />
        </mxCell>
        <mxCell id="QIEWuuHiFVR3ubCQnn6e-7" value="DIO" style="text;html=1;align=center;verticalAlign=middle;whiteSpace=wrap;rounded=0;" vertex="1" parent="1">
          <mxGeometry x="360" y="240" width="60" height="30" as="geometry" />
        </mxCell>
        <mxCell id="QIEWuuHiFVR3ubCQnn6e-8" value="CLK" style="text;html=1;align=center;verticalAlign=middle;whiteSpace=wrap;rounded=0;" vertex="1" parent="1">
          <mxGeometry x="360" y="270" width="60" height="30" as="geometry" />
        </mxCell>
        <mxCell id="QIEWuuHiFVR3ubCQnn6e-9" value="3V3" style="text;html=1;align=center;verticalAlign=middle;whiteSpace=wrap;rounded=0;" vertex="1" parent="1">
          <mxGeometry x="360" y="380" width="60" height="30" as="geometry" />
        </mxCell>
        <mxCell id="QIEWuuHiFVR3ubCQnn6e-10" value="5V" style="text;html=1;align=center;verticalAlign=middle;whiteSpace=wrap;rounded=0;" vertex="1" parent="1">
          <mxGeometry x="360" y="300" width="60" height="30" as="geometry" />
        </mxCell>
        <mxCell id="QIEWuuHiFVR3ubCQnn6e-11" value="RST" style="text;html=1;align=center;verticalAlign=middle;whiteSpace=wrap;rounded=0;" vertex="1" parent="1">
          <mxGeometry x="360" y="410" width="60" height="30" as="geometry" />
        </mxCell>
        <mxCell id="QIEWuuHiFVR3ubCQnn6e-12" value="TX" style="text;html=1;align=center;verticalAlign=middle;whiteSpace=wrap;rounded=0;" vertex="1" parent="1">
          <mxGeometry x="360" y="440" width="60" height="30" as="geometry" />
        </mxCell>
        <mxCell id="QIEWuuHiFVR3ubCQnn6e-13" value="RX" style="text;html=1;align=center;verticalAlign=middle;whiteSpace=wrap;rounded=0;" vertex="1" parent="1">
          <mxGeometry x="360" y="469" width="60" height="30" as="geometry" />
        </mxCell>
        <mxCell id="QIEWuuHiFVR3ubCQnn6e-14" value="TX" style="text;html=1;align=center;verticalAlign=middle;whiteSpace=wrap;rounded=0;" vertex="1" parent="1">
          <mxGeometry x="660" y="470" width="60" height="30" as="geometry" />
        </mxCell>
        <mxCell id="QIEWuuHiFVR3ubCQnn6e-15" value="GND" style="text;html=1;align=center;verticalAlign=middle;whiteSpace=wrap;rounded=0;" vertex="1" parent="1">
          <mxGeometry x="660" y="384" width="60" height="30" as="geometry" />
        </mxCell>
        <mxCell id="QIEWuuHiFVR3ubCQnn6e-16" value="VCC" style="text;html=1;align=center;verticalAlign=middle;whiteSpace=wrap;rounded=0;" vertex="1" parent="1">
          <mxGeometry x="660" y="410" width="60" height="30" as="geometry" />
        </mxCell>
        <mxCell id="QIEWuuHiFVR3ubCQnn6e-17" value="SWCLK" style="text;html=1;align=center;verticalAlign=middle;whiteSpace=wrap;rounded=0;" vertex="1" parent="1">
          <mxGeometry x="660" y="206" width="60" height="30" as="geometry" />
        </mxCell>
        <mxCell id="QIEWuuHiFVR3ubCQnn6e-18" value="SWDIO" style="text;html=1;align=center;verticalAlign=middle;whiteSpace=wrap;rounded=0;" vertex="1" parent="1">
          <mxGeometry x="660" y="180" width="60" height="30" as="geometry" />
        </mxCell>
        <mxCell id="QIEWuuHiFVR3ubCQnn6e-20" style="edgeStyle=orthogonalEdgeStyle;rounded=0;orthogonalLoop=1;jettySize=auto;html=1;exitX=1;exitY=0.5;exitDx=0;exitDy=0;entryX=0;entryY=0.5;entryDx=0;entryDy=0;startArrow=oval;startFill=1;endArrow=oval;endFill=1;" edge="1" parent="1" source="QIEWuuHiFVR3ubCQnn6e-7" target="QIEWuuHiFVR3ubCQnn6e-18">
          <mxGeometry relative="1" as="geometry">
            <mxPoint x="430" y="235" as="sourcePoint" />
            <mxPoint x="670" y="205" as="targetPoint" />
            <Array as="points">
              <mxPoint x="460" y="255" />
              <mxPoint x="460" y="195" />
            </Array>
          </mxGeometry>
        </mxCell>
        <mxCell id="QIEWuuHiFVR3ubCQnn6e-21" style="edgeStyle=orthogonalEdgeStyle;rounded=0;orthogonalLoop=1;jettySize=auto;html=1;entryX=0;entryY=0.5;entryDx=0;entryDy=0;startArrow=oval;startFill=1;endArrow=oval;endFill=1;" edge="1" parent="1" source="QIEWuuHiFVR3ubCQnn6e-8" target="QIEWuuHiFVR3ubCQnn6e-17">
          <mxGeometry relative="1" as="geometry">
            <mxPoint x="430" y="265" as="sourcePoint" />
            <mxPoint x="670" y="405" as="targetPoint" />
            <Array as="points">
              <mxPoint x="500" y="285" />
              <mxPoint x="500" y="220" />
              <mxPoint x="660" y="220" />
            </Array>
          </mxGeometry>
        </mxCell>
        <mxCell id="QIEWuuHiFVR3ubCQnn6e-22" style="edgeStyle=orthogonalEdgeStyle;rounded=0;orthogonalLoop=1;jettySize=auto;html=1;entryX=0;entryY=0.5;entryDx=0;entryDy=0;startArrow=oval;startFill=1;endArrow=oval;endFill=1;exitX=1;exitY=0.5;exitDx=0;exitDy=0;" edge="1" parent="1" source="QIEWuuHiFVR3ubCQnn6e-13" target="QIEWuuHiFVR3ubCQnn6e-14">
          <mxGeometry relative="1" as="geometry">
            <mxPoint x="430" y="295" as="sourcePoint" />
            <mxPoint x="670" y="231" as="targetPoint" />
            <Array as="points">
              <mxPoint x="660" y="484" />
            </Array>
          </mxGeometry>
        </mxCell>
        <mxCell id="QIEWuuHiFVR3ubCQnn6e-23" style="edgeStyle=orthogonalEdgeStyle;rounded=0;orthogonalLoop=1;jettySize=auto;html=1;entryX=0;entryY=0.5;entryDx=0;entryDy=0;startArrow=oval;startFill=1;endArrow=oval;endFill=1;exitX=1;exitY=0.5;exitDx=0;exitDy=0;" edge="1" parent="1" source="QIEWuuHiFVR3ubCQnn6e-12" target="QIEWuuHiFVR3ubCQnn6e-5">
          <mxGeometry relative="1" as="geometry">
            <mxPoint x="430" y="494" as="sourcePoint" />
            <mxPoint x="670" y="495" as="targetPoint" />
            <Array as="points">
              <mxPoint x="530" y="455" />
              <mxPoint x="530" y="455" />
            </Array>
          </mxGeometry>
        </mxCell>
        <mxCell id="QIEWuuHiFVR3ubCQnn6e-24" style="edgeStyle=orthogonalEdgeStyle;rounded=0;orthogonalLoop=1;jettySize=auto;html=1;entryX=0;entryY=0.5;entryDx=0;entryDy=0;startArrow=oval;startFill=1;endArrow=oval;endFill=1;exitX=1;exitY=0.5;exitDx=0;exitDy=0;" edge="1" parent="1" source="QIEWuuHiFVR3ubCQnn6e-9" target="QIEWuuHiFVR3ubCQnn6e-16">
          <mxGeometry relative="1" as="geometry">
            <mxPoint x="430" y="295" as="sourcePoint" />
            <mxPoint x="670" y="231" as="targetPoint" />
            <Array as="points">
              <mxPoint x="540" y="395" />
              <mxPoint x="540" y="425" />
            </Array>
          </mxGeometry>
        </mxCell>
        <mxCell id="QIEWuuHiFVR3ubCQnn6e-25" style="edgeStyle=orthogonalEdgeStyle;rounded=0;orthogonalLoop=1;jettySize=auto;html=1;entryX=0;entryY=0.5;entryDx=0;entryDy=0;startArrow=oval;startFill=1;endArrow=oval;endFill=1;exitX=1;exitY=0.5;exitDx=0;exitDy=0;" edge="1" parent="1" source="QIEWuuHiFVR3ubCQnn6e-4" target="QIEWuuHiFVR3ubCQnn6e-15">
          <mxGeometry relative="1" as="geometry">
            <mxPoint x="430" y="350" as="sourcePoint" />
            <mxPoint x="670" y="380" as="targetPoint" />
            <Array as="points">
              <mxPoint x="580" y="345" />
              <mxPoint x="580" y="400" />
              <mxPoint x="660" y="400" />
            </Array>
          </mxGeometry>
        </mxCell>
      </root>
    </mxGraphModel>
  </diagram>
</mxfile>
